<svg xmlns="http://www.w3.org/2000/svg" width="87.019" height="87.023" viewBox="0 0 87.019 87.023">
  <g id="popularity" transform="translate(-0.011 0.001)">
    <g id="组_31" data-name="组 31" transform="translate(47.721 -0.001)">
      <path id="路径_271" data-name="路径 271" d="M296.7,32.373l-4.707-7.456-8.81-.349a2.551,2.551,0,0,1-1.86-4.177l5.636-6.781-2.391-8.487a2.551,2.551,0,0,1,3.4-3.059l8.191,3.265,7.333-4.9a2.551,2.551,0,0,1,3.96,2.286l-.574,8.8,6.923,5.461a2.551,2.551,0,0,1-.951,4.472L304.3,23.624,301.244,31.9a2.551,2.551,0,0,1-4.547.478Z" transform="translate(-280.728 0.001)" fill="rgba(255,255,255,0.71)"/>
    </g>
    <path id="路径_272" data-name="路径 272" d="M15.477,422.022a2.549,2.549,0,0,1,2.549,2.549v10.2a2.549,2.549,0,0,1-2.549,2.549H2.56a2.55,2.55,0,0,1-2.549-2.549v-10.2a2.55,2.55,0,0,1,2.549-2.549Z" transform="translate(0 -350.296)" fill="rgba(255,255,255,0.71)"/>
    <path id="路径_273" data-name="路径 273" d="M151.307,362.022a2.549,2.549,0,0,1,2.549,2.549v20.4a2.549,2.549,0,0,1-2.549,2.549H138.56a2.549,2.549,0,0,1-2.549-2.549v-20.4a2.55,2.55,0,0,1,2.549-2.549Z" transform="translate(-112.886 -300.494)" fill="rgba(255,255,255,0.71)"/>
    <path id="路径_274" data-name="路径 274" d="M286.307,302.022a2.549,2.549,0,0,1,2.549,2.549v30.593a2.549,2.549,0,0,1-2.549,2.549H273.56a2.549,2.549,0,0,1-2.549-2.549V304.571a2.55,2.55,0,0,1,2.549-2.549Z" transform="translate(-224.941 -250.691)" fill="rgba(255,255,255,0.71)"/>
    <g id="组_32" data-name="组 32" transform="translate(69.014 41.133)">
      <path id="路径_275" data-name="路径 275" d="M424.027,285.361a2.549,2.549,0,0,1-2.549,2.549H408.56a2.549,2.549,0,0,1-2.549-2.549v-40.79a2.549,2.549,0,0,1,2.549-2.549h12.917a2.549,2.549,0,0,1,2.549,2.549Z" transform="translate(-406.011 -242.022)" fill="rgba(255,255,255,0.71)"/>
    </g>
    <g id="组_33" data-name="组 33" transform="translate(10.378 30.936)">
      <path id="路径_276" data-name="路径 276" d="M63.56,207.516a2.549,2.549,0,0,1-2.549-2.549,7.657,7.657,0,0,1,7.648-7.648h10.2a2.552,2.552,0,0,0,2.549-2.549,7.657,7.657,0,0,1,7.648-7.648h10.2a2.552,2.552,0,0,0,2.549-2.549,2.549,2.549,0,0,1,5.1,0,7.657,7.657,0,0,1-7.648,7.648h-10.2a2.552,2.552,0,0,0-2.549,2.549,7.657,7.657,0,0,1-7.648,7.648h-10.2a2.552,2.552,0,0,0-2.549,2.549A2.549,2.549,0,0,1,63.56,207.516Z" transform="translate(-61.011 -182.022)" fill="rgba(255,255,255,0.71)"/>
    </g>
  </g>
</svg>
