<svg xmlns="http://www.w3.org/2000/svg" width="40.602" height="47.864" viewBox="0 0 40.602 47.864">
  <g id="like_1_" data-name="like (1)" transform="translate(-0.5)">
    <path id="路径_277" data-name="路径 277" d="M39.182,83.319h-7.67a13.874,13.874,0,0,0,1.507-2.593,8.436,8.436,0,0,0,.743-3.292,7.83,7.83,0,0,0-2.184-5.556,6.093,6.093,0,0,0-4.326-1.86,6.182,6.182,0,0,0-4.811,2.419,6.182,6.182,0,0,0-4.811-2.419,6.09,6.09,0,0,0-4.674,2.254,8.01,8.01,0,0,0-1.836,5.145,8.306,8.306,0,0,0,.718,3.3,13.641,13.641,0,0,0,1.5,2.6H6a1.4,1.4,0,0,0-1.217.705L.858,90.884a2.665,2.665,0,0,0,2.3,3.994H5.984l.4,7.034a3.537,3.537,0,0,0,4.1,3.525l3.018-.391.023,4.9a1.4,1.4,0,0,0,1.4,1.4H32.2a1.4,1.4,0,0,0,1.4-1.4V99.4c4.4-2.866,6.745-7.784,6.982-14.634a1.4,1.4,0,0,0-1.4-1.451Zm-21.551-10.5a3.859,3.859,0,0,1,3.468,3,1.4,1.4,0,0,0,2.685,0,3.859,3.859,0,0,1,3.468-3,3.31,3.31,0,0,1,2.337,1.032,5.011,5.011,0,0,1,1.369,3.562,5.664,5.664,0,0,1-.513,2.2,14.566,14.566,0,0,1-2.917,4.1c-.025.023-.048.048-.07.073a34.918,34.918,0,0,1-5.019,4.184c-.684-.467-1.768-1.247-2.941-2.238a18.108,18.108,0,0,1-5.079-6.11,5.535,5.535,0,0,1-.493-2.185c.015-2.543,1.677-4.611,3.706-4.611ZM36.178,92.257A11.177,11.177,0,0,1,31.5,97.4a1.4,1.4,0,0,0-.7,1.216v9.913H16.324l-.019-3.977,2.65-.634a6.073,6.073,0,0,0,4.008-3.169c.864-1.7,1.961-3.931,1.972-3.954a1.4,1.4,0,1,0-2.516-1.239c-.011.022-1.1,2.236-1.957,3.924a3.275,3.275,0,0,1-2.159,1.71l-3.66.875-4.546.59-.061.009a.708.708,0,0,1-.591-.164.74.74,0,0,1-.259-.588c0-.038,0-.076,0-.114l-.444-7.83a1.4,1.4,0,0,0-1.311-1.9H3.409l3.408-5.95h8.954A37.186,37.186,0,0,0,21.7,90.842a1.4,1.4,0,0,0,1.481,0,37.356,37.356,0,0,0,5.9-4.715h8.609a18.3,18.3,0,0,1-1.514,6.133Zm0,0" transform="translate(0 -63.474)" fill="#fff"/>
    <path id="路径_278" data-name="路径 278" d="M222.414,3.812a1.4,1.4,0,0,0,1.4-1.4V1.4a1.4,1.4,0,1,0-2.8,0V2.41A1.4,1.4,0,0,0,222.414,3.812Zm0,0" transform="translate(-199.898)" fill="#fff"/>
    <path id="路径_279" data-name="路径 279" d="M85.359,48.978A1.4,1.4,0,0,0,87.345,47l-.894-.9a1.4,1.4,0,0,0-1.986,1.98Zm0,0" transform="translate(-75.745 -41.418)" fill="#fff"/>
    <path id="路径_280" data-name="路径 280" d="M351.46,49.39a1.4,1.4,0,0,0,.993-.412l.894-.9a1.4,1.4,0,0,0-1.986-1.98l-.894.9a1.4,1.4,0,0,0,.993,2.392Zm0,0" transform="translate(-316.879 -41.418)" fill="#fff"/>
    <path id="路径_281" data-name="路径 281" d="M38.82,155.063h1.067a1.4,1.4,0,0,0,0-2.8H38.82a1.4,1.4,0,0,0,0,2.8Zm0,0" transform="translate(-33.467 -138.024)" fill="#fff"/>
    <path id="路径_282" data-name="路径 282" d="M395.677,152.258h-1.087a1.4,1.4,0,0,0,0,2.8h1.087a1.4,1.4,0,0,0,0-2.8Zm0,0" transform="translate(-355.977 -138.024)" fill="#fff"/>
  </g>
</svg>
