<svg xmlns="http://www.w3.org/2000/svg" width="40.37" height="40.374" viewBox="0 0 40.37 40.374">
  <g id="like_2_" data-name="like (2)" transform="translate(-0.5 0.001)">
    <path id="路径_283" data-name="路径 283" d="M40.869,19.369A19.823,19.823,0,0,0,20.684,0,19.823,19.823,0,0,0,.5,19.369V19.4A19.052,19.052,0,0,0,6.833,33.489v4.88a1.978,1.978,0,0,0,1.978,2,1.966,1.966,0,0,0,1.044-.3l3.922-2.45a20.724,20.724,0,0,0,6.867,1.167h.029c.13,0,.259,0,.388,0a19.823,19.823,0,0,0,19.807-19.37v-.054Zm-7.74,12.2a17.352,17.352,0,0,1-12.421,4.849h-.063A18.366,18.366,0,0,1,14.3,35.294a1.723,1.723,0,0,0-1.516.156L9.2,37.689V33.2a1.733,1.733,0,0,0-.6-1.307A16.683,16.683,0,0,1,2.868,19.406,17.455,17.455,0,0,1,20.661,2.37h.047A17.455,17.455,0,0,1,38.5,19.4a17.342,17.342,0,0,1-5.372,12.176Zm0,0" transform="translate(0 0)" fill="#fff"/>
    <path id="路径_284" data-name="路径 284" d="M145.993,144.184a5.239,5.239,0,0,0-3.273,1.129,6.247,6.247,0,0,0-.767.7,6.218,6.218,0,0,0-.767-.7,5.24,5.24,0,0,0-3.273-1.129,5.565,5.565,0,0,0-4.139,1.8,6.368,6.368,0,0,0-1.624,4.348c0,3.606,2.764,5.961,6.59,9.222.628.536,1.341,1.143,2.079,1.788a1.723,1.723,0,0,0,2.269,0c.744-.651,1.454-1.256,2.08-1.789,3.826-3.26,6.59-5.616,6.59-9.221a6.369,6.369,0,0,0-1.624-4.348,5.566,5.566,0,0,0-4.139-1.8Zm-2.363,13.57c-.512.436-1.079.919-1.678,1.439-.6-.517-1.164-1-1.678-1.438-3.591-3.06-5.758-4.907-5.758-7.42a3.486,3.486,0,0,1,3.4-3.783,2.886,2.886,0,0,1,1.825.634,4.554,4.554,0,0,1,1.078,1.252,1.325,1.325,0,0,0,2.275,0,4.559,4.559,0,0,1,1.078-1.252,2.885,2.885,0,0,1,1.825-.634,3.486,3.486,0,0,1,3.4,3.783c0,2.513-2.167,4.36-5.758,7.419Zm0,0" transform="translate(-121.268 -132.816)" fill="#fff"/>
  </g>
</svg>
